<mxfile host="app.diagrams.net" modified="2023-09-22T07:22:00.155Z" agent="Mozilla/5.0 (Windows NT 10.0; Win64; x64) AppleWebKit/537.36 (KHTML, like Gecko) Chrome/116.0.0.0 Safari/537.36" etag="Exil24Haa_8jXnIi9fi0" version="21.7.5" type="github">
  <diagram name="Страница — 1" id="k4ISJyrgVZ0rrxYSmTFb">
    <mxGraphModel dx="1647" dy="897" grid="1" gridSize="10" guides="1" tooltips="1" connect="1" arrows="1" fold="1" page="1" pageScale="1" pageWidth="827" pageHeight="1169" math="0" shadow="0">
      <root>
        <mxCell id="0" />
        <mxCell id="1" parent="0" />
        <mxCell id="7mVp-_uhn_l_bZ9WuR8x-1" value="" style="rounded=0;whiteSpace=wrap;html=1;" vertex="1" parent="1">
          <mxGeometry x="40" y="30" width="280" height="80" as="geometry" />
        </mxCell>
        <mxCell id="7mVp-_uhn_l_bZ9WuR8x-2" value="&lt;font style=&quot;font-size: 11px&quot;&gt;&lt;b&gt;@et/widget&lt;/b&gt;&lt;/font&gt;" style="text;html=1;strokeColor=none;fillColor=none;align=left;verticalAlign=middle;whiteSpace=wrap;rounded=0;" vertex="1" parent="1">
          <mxGeometry x="40" y="30" width="60" height="20" as="geometry" />
        </mxCell>
        <mxCell id="7mVp-_uhn_l_bZ9WuR8x-3" value="src/lib/widget/%widgetName%/table.definition.ts" style="ellipse;whiteSpace=wrap;html=1;fillColor=#f5f5f5;strokeColor=#666666;fontColor=#333333;" vertex="1" parent="1">
          <mxGeometry x="45" y="50" width="270" height="50" as="geometry" />
        </mxCell>
        <mxCell id="7mVp-_uhn_l_bZ9WuR8x-4" value="" style="rounded=0;whiteSpace=wrap;html=1;" vertex="1" parent="1">
          <mxGeometry x="440" y="30" width="330" height="80" as="geometry" />
        </mxCell>
        <mxCell id="7mVp-_uhn_l_bZ9WuR8x-5" value="&lt;font style=&quot;font-size: 11px&quot;&gt;&lt;b&gt;@et/helper&lt;/b&gt;&lt;/font&gt;" style="text;html=1;strokeColor=none;fillColor=none;align=left;verticalAlign=middle;whiteSpace=wrap;rounded=0;" vertex="1" parent="1">
          <mxGeometry x="440" y="30" width="60" height="20" as="geometry" />
        </mxCell>
        <mxCell id="7mVp-_uhn_l_bZ9WuR8x-6" value="src/core/helper/%helperName%/from-context.definition.ts" style="ellipse;whiteSpace=wrap;html=1;fillColor=#f5f5f5;strokeColor=#666666;fontColor=#333333;" vertex="1" parent="1">
          <mxGeometry x="445" y="50" width="320" height="50" as="geometry" />
        </mxCell>
        <mxCell id="7mVp-_uhn_l_bZ9WuR8x-7" value="" style="rounded=0;whiteSpace=wrap;html=1;" vertex="1" parent="1">
          <mxGeometry x="10" y="140" width="500" height="290" as="geometry" />
        </mxCell>
        <mxCell id="7mVp-_uhn_l_bZ9WuR8x-8" value="&lt;font style=&quot;font-size: 11px&quot;&gt;&lt;b&gt;frontend&lt;/b&gt;&lt;/font&gt;" style="text;html=1;strokeColor=none;fillColor=none;align=left;verticalAlign=middle;whiteSpace=wrap;rounded=0;" vertex="1" parent="1">
          <mxGeometry x="10" y="140" width="60" height="20" as="geometry" />
        </mxCell>
        <mxCell id="7mVp-_uhn_l_bZ9WuR8x-9" value="" style="rounded=0;whiteSpace=wrap;html=1;" vertex="1" parent="1">
          <mxGeometry x="20" y="190" width="460" height="80" as="geometry" />
        </mxCell>
        <mxCell id="7mVp-_uhn_l_bZ9WuR8x-10" value="&lt;font style=&quot;font-size: 11px&quot;&gt;&lt;b&gt;node_modules&lt;/b&gt;&lt;/font&gt;" style="text;html=1;strokeColor=none;fillColor=none;align=left;verticalAlign=middle;whiteSpace=wrap;rounded=0;" vertex="1" parent="1">
          <mxGeometry x="20" y="190" width="60" height="20" as="geometry" />
        </mxCell>
        <mxCell id="7mVp-_uhn_l_bZ9WuR8x-11" value="node_moduled/@et/widget" style="ellipse;whiteSpace=wrap;html=1;fillColor=#f5f5f5;strokeColor=#666666;fontColor=#333333;" vertex="1" parent="1">
          <mxGeometry x="50" y="210" width="160" height="50" as="geometry" />
        </mxCell>
        <mxCell id="7mVp-_uhn_l_bZ9WuR8x-12" value="node_moduled/@et/helper" style="ellipse;whiteSpace=wrap;html=1;fillColor=#f5f5f5;strokeColor=#666666;fontColor=#333333;" vertex="1" parent="1">
          <mxGeometry x="285" y="210" width="160" height="50" as="geometry" />
        </mxCell>
        <mxCell id="7mVp-_uhn_l_bZ9WuR8x-13" value="definition/gui.json-schema.definition.ts" style="ellipse;whiteSpace=wrap;html=1;fillColor=#f5f5f5;strokeColor=#666666;fontColor=#333333;" vertex="1" parent="1">
          <mxGeometry x="255" y="290" width="220" height="50" as="geometry" />
        </mxCell>
        <mxCell id="7mVp-_uhn_l_bZ9WuR8x-14" value="definition/gui.json-schema.definition.json" style="ellipse;whiteSpace=wrap;html=1;fillColor=#f5f5f5;strokeColor=#666666;fontColor=#333333;" vertex="1" parent="1">
          <mxGeometry x="255" y="370" width="220" height="50" as="geometry" />
        </mxCell>
        <mxCell id="7mVp-_uhn_l_bZ9WuR8x-15" value="" style="rounded=0;whiteSpace=wrap;html=1;" vertex="1" parent="1">
          <mxGeometry x="550" y="140" width="260" height="290" as="geometry" />
        </mxCell>
        <mxCell id="7mVp-_uhn_l_bZ9WuR8x-16" value="&lt;font style=&quot;font-size: 11px&quot;&gt;&lt;b&gt;workflow&lt;/b&gt;&lt;/font&gt;" style="text;html=1;strokeColor=none;fillColor=none;align=left;verticalAlign=middle;whiteSpace=wrap;rounded=0;" vertex="1" parent="1">
          <mxGeometry x="550" y="140" width="60" height="20" as="geometry" />
        </mxCell>
        <mxCell id="7mVp-_uhn_l_bZ9WuR8x-17" value="" style="rounded=0;whiteSpace=wrap;html=1;" vertex="1" parent="1">
          <mxGeometry x="570" y="180" width="210" height="80" as="geometry" />
        </mxCell>
        <mxCell id="7mVp-_uhn_l_bZ9WuR8x-18" value="&lt;font style=&quot;font-size: 11px&quot;&gt;&lt;b&gt;node_modules&lt;/b&gt;&lt;/font&gt;" style="text;html=1;strokeColor=none;fillColor=none;align=left;verticalAlign=middle;whiteSpace=wrap;rounded=0;" vertex="1" parent="1">
          <mxGeometry x="570" y="180" width="60" height="20" as="geometry" />
        </mxCell>
        <mxCell id="7mVp-_uhn_l_bZ9WuR8x-19" value="node_modules/@et/helper" style="ellipse;whiteSpace=wrap;html=1;fillColor=#f5f5f5;strokeColor=#666666;fontColor=#333333;" vertex="1" parent="1">
          <mxGeometry x="600" y="200" width="160" height="50" as="geometry" />
        </mxCell>
        <mxCell id="7mVp-_uhn_l_bZ9WuR8x-20" value="definition/workflow.json-schema.definition.ts" style="ellipse;whiteSpace=wrap;html=1;fillColor=#f5f5f5;strokeColor=#666666;fontColor=#333333;" vertex="1" parent="1">
          <mxGeometry x="560" y="290" width="240" height="50" as="geometry" />
        </mxCell>
        <mxCell id="7mVp-_uhn_l_bZ9WuR8x-21" value="definition/workflow.json-schema.definition.json" style="ellipse;whiteSpace=wrap;html=1;fillColor=#f5f5f5;strokeColor=#666666;fontColor=#333333;" vertex="1" parent="1">
          <mxGeometry x="560" y="370" width="240" height="50" as="geometry" />
        </mxCell>
        <mxCell id="7mVp-_uhn_l_bZ9WuR8x-22" value="" style="rounded=0;whiteSpace=wrap;html=1;" vertex="1" parent="1">
          <mxGeometry x="250" y="460" width="530" height="170" as="geometry" />
        </mxCell>
        <mxCell id="7mVp-_uhn_l_bZ9WuR8x-23" value="&lt;font style=&quot;font-size: 11px&quot;&gt;&lt;b&gt;factory-project&lt;/b&gt;&lt;/font&gt;" style="text;html=1;strokeColor=none;fillColor=none;align=left;verticalAlign=middle;whiteSpace=wrap;rounded=0;" vertex="1" parent="1">
          <mxGeometry x="250" y="460" width="100" height="20" as="geometry" />
        </mxCell>
        <mxCell id="7mVp-_uhn_l_bZ9WuR8x-24" value="" style="rounded=0;whiteSpace=wrap;html=1;" vertex="1" parent="1">
          <mxGeometry x="270" y="510" width="500" height="80" as="geometry" />
        </mxCell>
        <mxCell id="7mVp-_uhn_l_bZ9WuR8x-25" value="&lt;font style=&quot;font-size: 11px&quot;&gt;&lt;b&gt;definition&lt;/b&gt;&lt;/font&gt;" style="text;html=1;strokeColor=none;fillColor=none;align=left;verticalAlign=middle;whiteSpace=wrap;rounded=0;" vertex="1" parent="1">
          <mxGeometry x="270" y="510" width="60" height="20" as="geometry" />
        </mxCell>
        <mxCell id="7mVp-_uhn_l_bZ9WuR8x-26" value="definition/gui.json-schema.definition.json" style="ellipse;whiteSpace=wrap;html=1;fillColor=#f5f5f5;strokeColor=#666666;fontColor=#333333;" vertex="1" parent="1">
          <mxGeometry x="280" y="530" width="220" height="50" as="geometry" />
        </mxCell>
        <mxCell id="7mVp-_uhn_l_bZ9WuR8x-27" value="definition/workflow.json-schema.definition.json" style="ellipse;whiteSpace=wrap;html=1;fillColor=#f5f5f5;strokeColor=#666666;fontColor=#333333;" vertex="1" parent="1">
          <mxGeometry x="530" y="530" width="240" height="50" as="geometry" />
        </mxCell>
        <mxCell id="7mVp-_uhn_l_bZ9WuR8x-28" value="" style="rounded=0;whiteSpace=wrap;html=1;" vertex="1" parent="1">
          <mxGeometry x="255" y="660" width="500" height="80" as="geometry" />
        </mxCell>
        <mxCell id="7mVp-_uhn_l_bZ9WuR8x-29" value="&lt;font style=&quot;font-size: 11px&quot;&gt;&lt;b&gt;@et/definition&lt;/b&gt;&lt;/font&gt;" style="text;html=1;strokeColor=none;fillColor=none;align=left;verticalAlign=middle;whiteSpace=wrap;rounded=0;" vertex="1" parent="1">
          <mxGeometry x="255" y="660" width="60" height="20" as="geometry" />
        </mxCell>
        <mxCell id="7mVp-_uhn_l_bZ9WuR8x-30" value="gui.json-schema.definition.json" style="ellipse;whiteSpace=wrap;html=1;fillColor=#f5f5f5;strokeColor=#666666;fontColor=#333333;" vertex="1" parent="1">
          <mxGeometry x="265" y="680" width="220" height="50" as="geometry" />
        </mxCell>
        <mxCell id="7mVp-_uhn_l_bZ9WuR8x-31" value="workflow.json-schema.definition.json" style="ellipse;whiteSpace=wrap;html=1;fillColor=#f5f5f5;strokeColor=#666666;fontColor=#333333;" vertex="1" parent="1">
          <mxGeometry x="515" y="680" width="240" height="50" as="geometry" />
        </mxCell>
        <mxCell id="7mVp-_uhn_l_bZ9WuR8x-32" value="" style="rounded=0;whiteSpace=wrap;html=1;" vertex="1" parent="1">
          <mxGeometry x="40" y="760" width="530" height="210" as="geometry" />
        </mxCell>
        <mxCell id="7mVp-_uhn_l_bZ9WuR8x-33" value="&lt;font style=&quot;font-size: 11px&quot;&gt;&lt;b&gt;configurator-apps&lt;/b&gt;&lt;/font&gt;" style="text;html=1;strokeColor=none;fillColor=none;align=left;verticalAlign=middle;whiteSpace=wrap;rounded=0;" vertex="1" parent="1">
          <mxGeometry x="40" y="760" width="100" height="20" as="geometry" />
        </mxCell>
        <mxCell id="7mVp-_uhn_l_bZ9WuR8x-34" value="" style="rounded=0;whiteSpace=wrap;html=1;" vertex="1" parent="1">
          <mxGeometry x="50" y="810" width="240" height="90" as="geometry" />
        </mxCell>
        <mxCell id="7mVp-_uhn_l_bZ9WuR8x-35" value="&lt;font style=&quot;font-size: 11px&quot;&gt;&lt;b&gt;resources-master-console&lt;/b&gt;&lt;/font&gt;" style="text;html=1;strokeColor=none;fillColor=none;align=left;verticalAlign=middle;whiteSpace=wrap;rounded=0;" vertex="1" parent="1">
          <mxGeometry x="60" y="810" width="160" height="20" as="geometry" />
        </mxCell>
        <mxCell id="7mVp-_uhn_l_bZ9WuR8x-36" value="node_modules/@et/definition" style="ellipse;whiteSpace=wrap;html=1;fillColor=#f5f5f5;strokeColor=#666666;fontColor=#333333;" vertex="1" parent="1">
          <mxGeometry x="60" y="840" width="220" height="40" as="geometry" />
        </mxCell>
        <mxCell id="7mVp-_uhn_l_bZ9WuR8x-37" value="" style="rounded=0;whiteSpace=wrap;html=1;" vertex="1" parent="1">
          <mxGeometry x="320" y="810" width="230" height="140" as="geometry" />
        </mxCell>
        <mxCell id="7mVp-_uhn_l_bZ9WuR8x-38" value="&lt;font style=&quot;font-size: 11px&quot;&gt;&lt;b&gt;configurator-frontend&lt;/b&gt;&lt;/font&gt;" style="text;html=1;strokeColor=none;fillColor=none;align=left;verticalAlign=middle;whiteSpace=wrap;rounded=0;" vertex="1" parent="1">
          <mxGeometry x="320" y="810" width="160" height="20" as="geometry" />
        </mxCell>
        <mxCell id="7mVp-_uhn_l_bZ9WuR8x-39" value="node_modules/@et/definition" style="ellipse;whiteSpace=wrap;html=1;fillColor=#f5f5f5;strokeColor=#666666;fontColor=#333333;" vertex="1" parent="1">
          <mxGeometry x="325" y="840" width="220" height="40" as="geometry" />
        </mxCell>
        <mxCell id="7mVp-_uhn_l_bZ9WuR8x-40" value="assets/definition" style="ellipse;whiteSpace=wrap;html=1;fillColor=#f5f5f5;strokeColor=#666666;fontColor=#333333;" vertex="1" parent="1">
          <mxGeometry x="362.5" y="900" width="145" height="40" as="geometry" />
        </mxCell>
        <mxCell id="7mVp-_uhn_l_bZ9WuR8x-41" value="" style="rounded=0;whiteSpace=wrap;html=1;" vertex="1" parent="1">
          <mxGeometry x="600" y="800" width="230" height="90" as="geometry" />
        </mxCell>
        <mxCell id="7mVp-_uhn_l_bZ9WuR8x-42" value="&lt;font style=&quot;font-size: 11px&quot;&gt;&lt;b&gt;admin-api&lt;/b&gt;&lt;/font&gt;" style="text;html=1;strokeColor=none;fillColor=none;align=left;verticalAlign=middle;whiteSpace=wrap;rounded=0;" vertex="1" parent="1">
          <mxGeometry x="600" y="800" width="160" height="20" as="geometry" />
        </mxCell>
        <mxCell id="7mVp-_uhn_l_bZ9WuR8x-43" value="node_modules/@et/definition" style="ellipse;whiteSpace=wrap;html=1;fillColor=#f5f5f5;strokeColor=#666666;fontColor=#333333;" vertex="1" parent="1">
          <mxGeometry x="605" y="830" width="220" height="40" as="geometry" />
        </mxCell>
        <mxCell id="7mVp-_uhn_l_bZ9WuR8x-44" value="" style="html=1;verticalAlign=bottom;endArrow=open;dashed=1;endSize=8;exitX=0.5;exitY=1;exitDx=0;exitDy=0;entryX=0.5;entryY=0;entryDx=0;entryDy=0;" edge="1" parent="1" source="7mVp-_uhn_l_bZ9WuR8x-3" target="7mVp-_uhn_l_bZ9WuR8x-11">
          <mxGeometry relative="1" as="geometry">
            <mxPoint x="140" y="490" as="sourcePoint" />
            <mxPoint x="60" y="490" as="targetPoint" />
          </mxGeometry>
        </mxCell>
        <mxCell id="7mVp-_uhn_l_bZ9WuR8x-45" value="" style="html=1;verticalAlign=bottom;endArrow=open;dashed=1;endSize=8;exitX=0.5;exitY=1;exitDx=0;exitDy=0;entryX=0.5;entryY=0;entryDx=0;entryDy=0;" edge="1" parent="1" source="7mVp-_uhn_l_bZ9WuR8x-6" target="7mVp-_uhn_l_bZ9WuR8x-12">
          <mxGeometry relative="1" as="geometry">
            <mxPoint x="190" y="110" as="sourcePoint" />
            <mxPoint x="140" y="219.9999999999999" as="targetPoint" />
          </mxGeometry>
        </mxCell>
        <mxCell id="7mVp-_uhn_l_bZ9WuR8x-46" value="" style="html=1;verticalAlign=bottom;endArrow=open;dashed=1;endSize=8;exitX=0.5;exitY=1;exitDx=0;exitDy=0;entryX=0.5;entryY=0;entryDx=0;entryDy=0;" edge="1" parent="1" source="7mVp-_uhn_l_bZ9WuR8x-6" target="7mVp-_uhn_l_bZ9WuR8x-19">
          <mxGeometry relative="1" as="geometry">
            <mxPoint x="615" y="110" as="sourcePoint" />
            <mxPoint x="375" y="219.9999999999999" as="targetPoint" />
          </mxGeometry>
        </mxCell>
        <mxCell id="7mVp-_uhn_l_bZ9WuR8x-47" value="" style="html=1;verticalAlign=bottom;endArrow=open;dashed=1;endSize=8;exitX=0.5;exitY=1;exitDx=0;exitDy=0;entryX=0;entryY=0;entryDx=0;entryDy=0;" edge="1" parent="1" target="7mVp-_uhn_l_bZ9WuR8x-13">
          <mxGeometry relative="1" as="geometry">
            <mxPoint x="190" y="250" as="sourcePoint" />
            <mxPoint x="260" y="349.9999999999999" as="targetPoint" />
          </mxGeometry>
        </mxCell>
        <mxCell id="7mVp-_uhn_l_bZ9WuR8x-48" value="" style="html=1;verticalAlign=bottom;endArrow=open;dashed=1;endSize=8;exitX=0.5;exitY=1;exitDx=0;exitDy=0;" edge="1" parent="1" source="7mVp-_uhn_l_bZ9WuR8x-12" target="7mVp-_uhn_l_bZ9WuR8x-13">
          <mxGeometry relative="1" as="geometry">
            <mxPoint x="200" y="259.9999999999999" as="sourcePoint" />
            <mxPoint x="302.0713578701698" y="307.3557791404156" as="targetPoint" />
          </mxGeometry>
        </mxCell>
        <mxCell id="7mVp-_uhn_l_bZ9WuR8x-49" value="" style="html=1;verticalAlign=bottom;endArrow=open;dashed=1;endSize=8;exitX=0.5;exitY=1;exitDx=0;exitDy=0;" edge="1" parent="1" source="7mVp-_uhn_l_bZ9WuR8x-19" target="7mVp-_uhn_l_bZ9WuR8x-20">
          <mxGeometry relative="1" as="geometry">
            <mxPoint x="375" y="269.9999999999999" as="sourcePoint" />
            <mxPoint x="375" y="299.9999999999999" as="targetPoint" />
          </mxGeometry>
        </mxCell>
        <mxCell id="7mVp-_uhn_l_bZ9WuR8x-50" value="" style="endArrow=classic;html=1;exitX=0.5;exitY=1;exitDx=0;exitDy=0;entryX=0.5;entryY=0;entryDx=0;entryDy=0;" edge="1" parent="1" source="7mVp-_uhn_l_bZ9WuR8x-13" target="7mVp-_uhn_l_bZ9WuR8x-14">
          <mxGeometry width="50" height="50" relative="1" as="geometry">
            <mxPoint x="80" y="580" as="sourcePoint" />
            <mxPoint x="130" y="530" as="targetPoint" />
          </mxGeometry>
        </mxCell>
        <mxCell id="7mVp-_uhn_l_bZ9WuR8x-51" value="" style="endArrow=classic;html=1;exitX=0.5;exitY=1;exitDx=0;exitDy=0;entryX=0.5;entryY=0;entryDx=0;entryDy=0;" edge="1" parent="1" source="7mVp-_uhn_l_bZ9WuR8x-20" target="7mVp-_uhn_l_bZ9WuR8x-21">
          <mxGeometry width="50" height="50" relative="1" as="geometry">
            <mxPoint x="375" y="349.9999999999999" as="sourcePoint" />
            <mxPoint x="375" y="379.9999999999999" as="targetPoint" />
          </mxGeometry>
        </mxCell>
        <mxCell id="7mVp-_uhn_l_bZ9WuR8x-52" value="" style="endArrow=classic;html=1;exitX=0.5;exitY=1;exitDx=0;exitDy=0;entryX=0.5;entryY=0;entryDx=0;entryDy=0;" edge="1" parent="1" source="7mVp-_uhn_l_bZ9WuR8x-14" target="7mVp-_uhn_l_bZ9WuR8x-26">
          <mxGeometry width="50" height="50" relative="1" as="geometry">
            <mxPoint x="375" y="349.9999999999999" as="sourcePoint" />
            <mxPoint x="375" y="379.9999999999999" as="targetPoint" />
          </mxGeometry>
        </mxCell>
        <mxCell id="7mVp-_uhn_l_bZ9WuR8x-53" value="" style="endArrow=classic;html=1;exitX=0.5;exitY=1;exitDx=0;exitDy=0;entryX=0.5;entryY=0;entryDx=0;entryDy=0;" edge="1" parent="1" source="7mVp-_uhn_l_bZ9WuR8x-21" target="7mVp-_uhn_l_bZ9WuR8x-27">
          <mxGeometry width="50" height="50" relative="1" as="geometry">
            <mxPoint x="375" y="429.9999999999999" as="sourcePoint" />
            <mxPoint x="400" y="540" as="targetPoint" />
          </mxGeometry>
        </mxCell>
        <mxCell id="7mVp-_uhn_l_bZ9WuR8x-54" value="" style="endArrow=classic;html=1;exitX=0;exitY=1;exitDx=0;exitDy=0;entryX=0.25;entryY=0;entryDx=0;entryDy=0;" edge="1" parent="1" source="7mVp-_uhn_l_bZ9WuR8x-24" target="7mVp-_uhn_l_bZ9WuR8x-29">
          <mxGeometry width="50" height="50" relative="1" as="geometry">
            <mxPoint x="375" y="429.9999999999999" as="sourcePoint" />
            <mxPoint x="400" y="540" as="targetPoint" />
          </mxGeometry>
        </mxCell>
        <mxCell id="7mVp-_uhn_l_bZ9WuR8x-55" value="" style="endArrow=classic;html=1;exitX=0;exitY=0.75;exitDx=0;exitDy=0;entryX=1;entryY=0;entryDx=0;entryDy=0;" edge="1" parent="1" source="7mVp-_uhn_l_bZ9WuR8x-28" target="7mVp-_uhn_l_bZ9WuR8x-36">
          <mxGeometry width="50" height="50" relative="1" as="geometry">
            <mxPoint x="280" y="600" as="sourcePoint" />
            <mxPoint x="280" y="670" as="targetPoint" />
          </mxGeometry>
        </mxCell>
        <mxCell id="7mVp-_uhn_l_bZ9WuR8x-56" value="" style="endArrow=classic;html=1;exitX=0.052;exitY=1.008;exitDx=0;exitDy=0;exitPerimeter=0;" edge="1" parent="1" source="7mVp-_uhn_l_bZ9WuR8x-28" target="7mVp-_uhn_l_bZ9WuR8x-39">
          <mxGeometry width="50" height="50" relative="1" as="geometry">
            <mxPoint x="265" y="730" as="sourcePoint" />
            <mxPoint x="259.0141849476681" y="856.0855523362595" as="targetPoint" />
          </mxGeometry>
        </mxCell>
        <mxCell id="7mVp-_uhn_l_bZ9WuR8x-57" value="" style="endArrow=classic;html=1;entryX=0;entryY=0;entryDx=0;entryDy=0;exitX=0.054;exitY=1.015;exitDx=0;exitDy=0;exitPerimeter=0;" edge="1" parent="1" source="7mVp-_uhn_l_bZ9WuR8x-28" target="7mVp-_uhn_l_bZ9WuR8x-43">
          <mxGeometry width="50" height="50" relative="1" as="geometry">
            <mxPoint x="250" y="720" as="sourcePoint" />
            <mxPoint x="419.9346532464108" y="850.5261536760574" as="targetPoint" />
          </mxGeometry>
        </mxCell>
        <mxCell id="7mVp-_uhn_l_bZ9WuR8x-58" value="" style="endArrow=classic;html=1;exitX=0.5;exitY=1;exitDx=0;exitDy=0;" edge="1" parent="1" source="7mVp-_uhn_l_bZ9WuR8x-39" target="7mVp-_uhn_l_bZ9WuR8x-40">
          <mxGeometry width="50" height="50" relative="1" as="geometry">
            <mxPoint x="437.52" y="890" as="sourcePoint" />
            <mxPoint x="592.4807696258002" y="1010.5250430422891" as="targetPoint" />
          </mxGeometry>
        </mxCell>
      </root>
    </mxGraphModel>
  </diagram>
</mxfile>
